<svg width="55" height="55" viewBox="0 0 55 55" fill="none" xmlns="http://www.w3.org/2000/svg">
<rect width="55" height="55" rx="10" fill="white"/>
<path fill-rule="evenodd" clip-rule="evenodd" d="M21.6897 30.555C21.6897 27.3383 24.291 24.7306 27.4998 24.7306C30.7087 24.7306 33.31 27.3383 33.31 30.555C33.31 33.7717 30.7087 36.3793 27.4998 36.3793C24.291 36.3793 21.6897 33.7717 21.6897 30.555Z" fill="var(--main-color)"/>
<path fill-rule="evenodd" clip-rule="evenodd" d="M27.4998 19.4358C25.306 19.4358 23.1615 20.0879 21.3374 21.3097C19.5133 22.5315 18.0916 24.2681 17.2521 26.2999C16.4126 28.3316 16.1929 30.5673 16.6209 32.7242C17.0489 34.8812 18.1053 36.8624 19.6566 38.4175C20.2754 39.0378 20.2754 40.0435 19.6566 40.6639C19.0377 41.2842 18.0344 41.2842 17.4156 40.6639C15.4211 38.6645 14.0629 36.1172 13.5126 33.344C12.9623 30.5708 13.2448 27.6964 14.3242 25.0841C15.4036 22.4718 17.2315 20.2391 19.5767 18.6682C21.922 17.0973 24.6792 16.2589 27.4998 16.2589C30.3204 16.2589 33.0777 17.0973 35.423 18.6682C37.7682 20.2391 39.5961 22.4718 40.6755 25.0841C41.7549 27.6964 42.0373 30.5708 41.4871 33.344C40.9368 36.1172 39.5785 38.6645 37.5841 40.6639C36.9652 41.2842 35.9619 41.2842 35.3431 40.6639C34.7243 40.0435 34.7243 39.0378 35.3431 38.4175C36.8944 36.8624 37.9508 34.8812 38.3788 32.7242C38.8068 30.5673 38.5871 28.3316 37.7476 26.2999C36.9081 24.2681 35.4863 22.5315 33.6623 21.3097C31.8382 20.0879 29.6936 19.4358 27.4998 19.4358Z" fill="var(--main-color)"/>
<path fill-rule="evenodd" clip-rule="evenodd" d="M27.5 11.1769C23.6767 11.1769 19.9393 12.3134 16.7604 14.4427C13.5814 16.572 11.1037 19.5985 9.64064 23.1393C8.17754 26.6802 7.79473 30.5765 8.54061 34.3355C9.28649 38.0945 11.1276 41.5473 13.831 44.2574C14.4499 44.8777 14.4499 45.8835 13.831 46.5038C13.2122 47.1241 12.2089 47.1241 11.5901 46.5038C8.44342 43.3494 6.30051 39.3305 5.43234 34.9553C4.56418 30.58 5.00975 26.045 6.71272 21.9236C8.41569 17.8022 11.2996 14.2796 14.9997 11.8012C18.6998 9.32283 23.0499 8 27.5 8C31.9501 8 36.3002 9.32283 40.0003 11.8012C43.7004 14.2796 46.5843 17.8022 48.2873 21.9236C49.9902 26.045 50.4358 30.58 49.5677 34.9553C48.6995 39.3305 46.5566 43.3494 43.4099 46.5038C42.7911 47.1241 41.7878 47.1241 41.169 46.5038C40.5501 45.8835 40.5501 44.8777 41.169 44.2574C43.8724 41.5473 45.7135 38.0945 46.4594 34.3355C47.2053 30.5765 46.8225 26.6802 45.3593 23.1393C43.8962 19.5985 41.4186 16.572 38.2396 14.4427C35.0607 12.3134 31.3233 11.1769 27.5 11.1769Z" fill="var(--main-color)"/>
</svg>
