<svg width="38" height="49" viewBox="0 0 38 49" fill="none" xmlns="http://www.w3.org/2000/svg">
<path d="M33.228 44.1894C33.2267 43.9868 33.2267 43.8041 33.2293 43.6228C33.2493 42.1481 33.2733 40.6734 33.2973 39.1988C33.3573 35.5614 33.4187 31.8001 33.4213 28.1001C33.4227 26.2121 33.264 24.4428 32.948 22.8428C32.2213 19.1628 30.2067 16.6761 26.96 15.4534C25.112 14.7574 23.096 14.4988 20.9733 14.6881C16.3667 15.0948 12.932 17.1868 10.7653 20.9041C10.752 20.9281 10.7373 20.9521 10.724 20.9761C10.9493 19.2601 11.156 17.4921 10.9907 15.7081L10.968 15.4668H0V19.9774H5.26667L5 44.3228H0.829333V48.8068H15.5933V44.2948H10.8373V44.2748C10.836 44.0948 10.836 43.9388 10.8387 43.7828L10.8907 40.2854C10.936 37.0521 10.984 33.7094 11.0613 30.4214C11.0907 29.1428 11.2093 28.0414 11.42 27.0534C12.1507 23.6401 13.8507 21.4121 16.616 20.2388C18.2253 19.5561 20 19.3534 22.0467 19.6214C24.8147 19.9828 26.5187 21.5334 27.1093 24.2294C27.4667 25.8574 27.648 27.4894 27.6507 29.0761C27.656 32.6428 27.5907 36.2708 27.528 39.7788C27.5053 41.0708 27.4827 42.3641 27.4613 43.6574C27.4587 43.8361 27.4427 44.0148 27.4253 44.2188L27.4173 44.3228H23.2787V48.8081H37.9893V44.2734H33.228V44.1894Z" fill="#E9531E"/>
<path d="M11.5072 7.08498C11.6352 6.88231 11.7486 6.70098 11.8672 6.52231C13.2486 4.41965 14.7712 4.06231 16.9552 5.32231C17.1966 5.46231 17.4366 5.60498 17.6752 5.74765C18.3352 6.14231 19.0179 6.55031 19.7326 6.87431C21.0219 7.45831 22.2606 7.75165 23.4406 7.75165C24.2326 7.75165 24.9966 7.61965 25.7312 7.35565C27.7352 6.63565 28.9926 5.01031 30.2072 3.43831L30.7606 2.72765L27.3086 0.287648L27.1512 0.464981C26.9952 0.638314 26.8486 0.807647 26.7046 0.974314C26.4046 1.31965 26.1206 1.64631 25.8192 1.94765C24.4206 3.34231 23.4166 3.49031 21.6779 2.56231C21.3592 2.39165 21.0446 2.21298 20.7286 2.03298C20.1966 1.73165 19.6472 1.41831 19.0806 1.15031C16.4366 -0.101686 13.9259 -0.337686 11.8206 0.471648C9.85124 1.22898 8.33524 2.85831 7.31124 5.31698L7.21924 5.53965L11.1539 7.64498L11.5072 7.08498Z" fill="#E9531E"/>
</svg>
