<svg width="303" height="303" viewBox="0 0 303 303" fill="none" xmlns="http://www.w3.org/2000/svg">
<path d="M303 151.5C303 235.172 235.173 303 151.502 303C67.8317 303 0 235.172 0 151.5C0 67.8283 67.8317 0 151.502 0C235.173 0 303 67.8283 303 151.5Z" fill="white"/>
<path d="M105.711 182.259C105.711 181.948 105.711 181.668 105.711 181.383C105.746 179.114 105.781 176.841 105.816 174.567C105.913 168.965 106.005 163.17 106.009 157.467C106.013 154.558 105.768 151.834 105.282 149.368C104.161 143.695 101.055 139.862 96.0528 137.979C93.2057 136.906 90.1001 136.507 86.8281 136.801C79.7278 137.427 74.4365 140.651 71.0988 146.376C71.0769 146.415 71.0551 146.45 71.0331 146.49C71.3836 143.844 71.6989 141.12 71.4449 138.373L71.4098 138.001H54.511V144.952H62.6231L62.2158 182.465H55.7857V189.372H78.5408V182.421H71.2083V182.39C71.2083 182.114 71.2084 181.873 71.2127 181.633L71.2915 176.245C71.3616 171.26 71.4361 166.109 71.5544 161.045C71.5982 159.074 71.7822 157.375 72.1063 155.855C73.232 150.594 75.8514 147.16 80.1133 145.355C82.5925 144.3 85.3301 143.989 88.4794 144.4C92.7457 144.957 95.3739 147.348 96.285 151.501C96.8325 154.011 97.1128 156.525 97.1172 158.969C97.1259 164.466 97.0252 170.056 96.9288 175.461C96.8938 177.454 96.8588 179.447 96.8281 181.44C96.8237 181.716 96.7974 181.992 96.7712 182.303L96.758 182.465H90.3805V189.377H113.048V182.39H105.711V182.259Z" fill="#E9531E"/>
<path d="M72.2414 125.084C72.4385 124.773 72.6137 124.493 72.7933 124.217C74.9221 120.976 77.2699 120.424 80.6383 122.369C81.0062 122.583 81.3785 122.802 81.7465 123.026C82.7627 123.63 83.8139 124.261 84.9177 124.76C86.9019 125.658 88.8117 126.109 90.6295 126.109C91.8472 126.109 93.0255 125.908 94.1599 125.5C97.248 124.392 99.184 121.887 101.059 119.465L101.908 118.37L96.591 114.611L96.3457 114.883C96.1091 115.15 95.8814 115.413 95.658 115.667C95.198 116.201 94.76 116.705 94.2957 117.169C92.1407 119.316 90.5945 119.548 87.9138 118.115C87.4232 117.853 86.937 117.577 86.4508 117.301C85.6317 116.836 84.7819 116.355 83.9103 115.938C79.8367 114.011 75.969 113.648 72.7233 114.892C69.6878 116.061 67.3531 118.571 65.7763 122.36L65.6361 122.701L71.6983 125.947L72.2414 125.084Z" fill="#E9531E"/>
<path d="M142.714 180.146C139.17 183.624 132.657 184.68 128.482 182.45C125.701 180.961 124.308 178.517 124.347 175.188C124.387 172.043 125.767 169.857 128.574 168.512C130.9 167.399 133.506 166.756 136.538 166.545C139.166 166.361 141.759 166.256 144.505 166.147C145.539 166.107 146.581 166.063 147.641 166.015C147.479 171.053 146.717 176.213 142.714 180.146ZM243.59 182.367V182.305C243.59 182.021 243.585 181.784 243.59 181.548C243.62 179.8 243.655 178.052 243.69 176.3C243.769 172.367 243.848 168.433 243.883 164.495C243.892 163.479 243.918 162.458 243.944 161.442C244.036 157.815 244.133 154.07 243.458 150.391C242.433 144.837 239.967 141.057 235.907 138.836C233.147 137.325 230.011 136.654 225.745 136.703C217.825 136.768 212.188 140.487 208.999 147.75C208.969 147.82 208.933 147.89 208.898 147.96C208.89 147.92 208.877 147.881 208.868 147.842C207.944 144.451 206.318 141.884 203.905 139.997C200.716 137.504 196.879 136.414 192.486 136.751C184.794 137.347 179.266 140.737 176.016 146.843C176.494 143.934 176.84 141.131 176.524 138.293L176.481 137.929H159.669V144.933H167.729L167.357 182.419L162.801 182.402H155.565V182.354C155.561 182.095 155.561 181.881 155.565 181.67C155.6 180.019 155.64 178.372 155.683 176.725C155.771 173.12 155.863 169.392 155.894 165.722C155.898 164.609 155.92 163.492 155.937 162.375C156.003 158.525 156.069 154.539 155.71 150.654C155.118 144.206 151.575 139.852 145.464 138.056C143.301 137.425 140.817 137.018 137.874 136.817C131.943 136.409 125.78 137.535 118.482 140.36C117.711 140.658 117.387 141.14 117.392 141.968C117.4 142.953 117.4 143.934 117.4 144.92H117.396V153.781H125.565V145.875C125.622 145.686 125.745 145.586 126.012 145.494C130.287 144.031 134.553 143.479 138.697 143.864C142.788 144.241 145.372 146.059 146.599 149.427C147.729 152.524 147.676 155.752 147.624 159.173L147.615 159.787C147.142 159.787 146.673 159.782 146.213 159.778C144.956 159.769 143.752 159.76 142.543 159.795C136.849 159.962 130.799 160.303 124.987 162.437C119.42 164.478 116.376 167.912 115.675 172.936C115.469 174.412 115.434 175.963 115.574 177.553C116.06 183.221 118.71 187.093 123.454 189.055C126.148 190.168 128.885 190.724 131.645 190.724C134.19 190.724 136.752 190.251 139.319 189.301C143.077 187.908 145.85 185.139 147.996 180.628L147.273 189.371L183.625 189.309V182.34H176.371L176.437 176.322C176.494 171.166 176.551 165.836 176.665 160.592C176.7 159.081 176.914 157.412 177.3 155.634C178.942 148.1 184.229 143.943 191.846 144.219C196.362 144.386 199.288 146.676 200.313 150.851C200.931 153.361 201.259 156.05 201.264 158.626C201.277 164.224 201.167 169.922 201.058 175.433C201.018 177.505 200.979 179.572 200.944 181.644C200.944 181.85 200.922 182.051 200.896 182.314L200.887 182.437H194.492V189.331H217.304V182.376H210.156V182.323C210.138 182.078 210.125 181.872 210.125 181.666L210.16 176.747C210.195 171.788 210.23 166.668 210.313 161.631C210.344 159.94 210.519 158.188 210.843 156.423C212.302 148.455 217.83 143.899 225.67 144.219C230.252 144.412 233.09 146.646 234.107 150.864C234.724 153.422 235.048 156.225 235.053 158.972C235.062 164.565 234.939 170.251 234.821 175.753C234.777 177.794 234.733 179.835 234.694 181.881C234.694 182.047 234.663 182.209 234.632 182.393H233.581C233.182 182.393 232.797 182.397 232.403 182.397H228.206V187.606C228.206 187.654 228.206 187.706 228.206 187.754V189.327H250.992V182.367H243.59Z" fill="#E9531E"/>
<path d="M158.357 88.1392C166.662 88.1392 171.819 93.7441 171.819 101.891V121.508H164.519V102.477C164.519 97.5241 161.639 94.2655 156.884 94.2655C151.994 94.2655 148.578 97.5241 148.578 102.477V121.508H141.211V102.477C141.211 97.5241 138.398 94.2655 133.576 94.2655C128.753 94.2655 125.337 97.5241 125.337 102.477V121.508H117.97V97.1982C117.97 95.4386 117.702 94.3306 116.429 94.3306C115.961 94.3306 115.626 94.5261 115.358 94.7217L114.889 94.5261L113.817 89.7034L114.085 89.2472C115.023 88.5954 116.429 88.1392 118.171 88.1392C121.252 88.1392 123.462 89.6382 124.266 92.2451C126.878 89.7685 130.629 88.1392 135.049 88.1392C140.139 88.1392 144.024 90.2248 146.301 93.6789C148.913 90.3551 153.133 88.1392 158.357 88.1392Z" fill="#E9531E"/>
<path d="M184.092 85.2065C186.906 85.2065 189.183 82.9906 189.183 80.2534C189.183 77.5813 186.906 75.3654 184.092 75.3654C181.346 75.3654 179.069 77.5813 179.069 80.2534C179.069 82.9906 181.346 85.2065 184.092 85.2065ZM180.476 121.508V88.9213H187.776V121.508H180.476Z" fill="#E9531E"/>
</svg>
